<svg xmlns="http://www.w3.org/2000/svg" width="1113.8739013671875" height="1218.4735107421875" viewBox="-395.54974365234375 -354.3253173828125 1113.8739013671875 1218.4735107421875"><title>Neo4j Graph Visualization</title><desc>Created using Neo4j (http://www.neo4j.com/)</desc><g class="layer relationships"><g class="relationship" transform="translate(397.20716351872926 372.78825615268005) rotate(437.5000477029883)"><path class="b-outline" fill="#A5ABB6" stroke="none" d="M 25 0.5 L 132.9793048934731 0.5 L 132.9793048934731 -0.5 L 25 -0.5 Z M 176.1668048934731 0.5 L 284.1461097869462 0.5 L 284.1461097869462 3.5 L 291.1461097869462 0 L 284.1461097869462 -3.5 L 284.1461097869462 -0.5 L 176.1668048934731 -0.5 Z"/><text text-anchor="middle" pointer-events="none" font-size="8px" fill="#000000" x="154.5730548934731" y="3" font-family="Helvetica Neue, Helvetica, Arial, sans-serif">TARGETS</text></g><g class="relationship" transform="translate(397.20716351872926 372.78825615268005) rotate(474.5666817664003)"><path class="b-outline" fill="#A5ABB6" stroke="none" d="M 25 0.5 L 87.3054806004254 0.5 L 87.3054806004254 -0.5 L 25 -0.5 Z M 130.4929806004254 0.5 L 192.7984612008508 0.5 L 192.7984612008508 3.5 L 199.7984612008508 0 L 192.7984612008508 -3.5 L 192.7984612008508 -0.5 L 130.4929806004254 -0.5 Z"/><text text-anchor="middle" pointer-events="none" font-size="8px" fill="#000000" x="108.8992306004254" y="3" transform="rotate(180 108.8992306004254 0)" font-family="Helvetica Neue, Helvetica, Arial, sans-serif">TARGETS</text></g><g class="relationship" transform="translate(397.20716351872926 372.78825615268005) rotate(454.5593160715059)"><path class="b-outline" fill="#A5ABB6" stroke="none" d="M 25 0.5 L 108.35118444033719 0.5 L 108.35118444033719 -0.5 L 25 -0.5 Z M 151.5386844403372 0.5 L 234.88986888067438 0.5 L 234.88986888067438 3.5 L 241.88986888067438 0 L 234.88986888067438 -3.5 L 234.88986888067438 -0.5 L 151.5386844403372 -0.5 Z"/><text text-anchor="middle" pointer-events="none" font-size="8px" fill="#000000" x="129.9449344403372" y="3" transform="rotate(180 129.9449344403372 0)" font-family="Helvetica Neue, Helvetica, Arial, sans-serif">TARGETS</text></g><g class="relationship" transform="translate(397.20716351872926 372.78825615268005) rotate(467.11515617849784)"><path class="b-outline" fill="#A5ABB6" stroke="none" d="M 25 0.5 L 144.40837701282112 0.5 L 144.40837701282112 -0.5 L 25 -0.5 Z M 187.59587701282112 0.5 L 307.00425402564224 0.5 L 307.00425402564224 3.5 L 314.00425402564224 0 L 307.00425402564224 -3.5 L 307.00425402564224 -0.5 L 187.59587701282112 -0.5 Z"/><text text-anchor="middle" pointer-events="none" font-size="8px" fill="#000000" x="166.00212701282112" y="3" transform="rotate(180 166.00212701282112 0)" font-family="Helvetica Neue, Helvetica, Arial, sans-serif">TARGETS</text></g><g class="relationship" transform="translate(397.20716351872926 372.78825615268005) rotate(293.45036640428907)"><path class="b-outline" fill="#A5ABB6" stroke="none" d="M 25 0.5 L 25.508555056830026 0.5 L 25.508555056830026 -0.5 L 25 -0.5 Z M 66.47339880683003 0.5 L 66.98195386366005 0.5 L 66.98195386366005 3.5 L 73.98195386366005 0 L 66.98195386366005 -3.5 L 66.98195386366005 -0.5 L 66.47339880683003 -0.5 Z"/><text text-anchor="middle" pointer-events="none" font-size="8px" fill="#000000" x="45.990976931830026" y="3" font-family="Helvetica Neue, Helvetica, Arial, sans-serif">TARGE…</text></g><g class="relationship" transform="translate(397.20716351872926 372.78825615268005) rotate(391.5145041456065)"><path class="b-outline" fill="#A5ABB6" stroke="none" d="M 25 0.5 L 116.93794381803559 0.5 L 116.93794381803559 -0.5 L 25 -0.5 Z M 160.1254438180356 0.5 L 252.06338763607118 0.5 L 252.06338763607118 3.5 L 259.0633876360712 0 L 252.06338763607118 -3.5 L 252.06338763607118 -0.5 L 160.1254438180356 -0.5 Z"/><text text-anchor="middle" pointer-events="none" font-size="8px" fill="#000000" x="138.5316938180356" y="3" font-family="Helvetica Neue, Helvetica, Arial, sans-serif">TARGETS</text></g><g class="relationship" transform="translate(397.20716351872926 372.78825615268005) rotate(409.81382612034577)"><path class="b-outline" fill="#A5ABB6" stroke="none" d="M 25 0.5 L 91.8310504229238 0.5 L 91.8310504229238 -0.5 L 25 -0.5 Z M 135.0185504229238 0.5 L 201.8496008458476 0.5 L 201.8496008458476 3.5 L 208.8496008458476 0 L 201.8496008458476 -3.5 L 201.8496008458476 -0.5 L 135.0185504229238 -0.5 Z"/><text text-anchor="middle" pointer-events="none" font-size="8px" fill="#000000" x="113.4248004229238" y="3" font-family="Helvetica Neue, Helvetica, Arial, sans-serif">TARGETS</text></g><g class="relationship" transform="translate(465.6334484931769 681.4404977742428) rotate(462.9767465096332)"><path class="b-outline" fill="#A5ABB6" stroke="none" d="M 25 0.5 L 46.7332697028169 0.5 L 46.7332697028169 -0.5 L 25 -0.5 Z M 104.0028009528169 0.5 L 125.7360706556338 0.5 L 125.7360706556338 3.5 L 132.7360706556338 0 L 125.7360706556338 -3.5 L 125.7360706556338 -0.5 L 104.0028009528169 -0.5 Z"/><text text-anchor="middle" pointer-events="none" font-size="8px" fill="#000000" x="75.3680353278169" y="3" transform="rotate(180 75.3680353278169 0)" font-family="Helvetica Neue, Helvetica, Arial, sans-serif">LOCATED_AT</text></g><g class="relationship" transform="translate(303.7467560603855 577.2375173300949) rotate(392.7685120868561)"><path class="b-outline" fill="#A5ABB6" stroke="none" d="M 25 0.5 L 64.1273275377199 0.5 L 64.1273275377199 -0.5 L 25 -0.5 Z M 121.3968587877199 0.5 L 160.5241863254398 0.5 L 160.5241863254398 3.5 L 167.5241863254398 0 L 160.5241863254398 -3.5 L 160.5241863254398 -0.5 L 121.3968587877199 -0.5 Z"/><text text-anchor="middle" pointer-events="none" font-size="8px" fill="#000000" x="92.7620931627199" y="3" font-family="Helvetica Neue, Helvetica, Arial, sans-serif">LOCATED_AT</text></g><g class="relationship" transform="translate(375.99178815547117 638.8335717651516) rotate(385.42186860239394)"><path class="b-outline" fill="#A5ABB6" stroke="none" d="M 25 0.5 L 26.08698260749565 0.5 L 26.08698260749565 -0.5 L 25 -0.5 Z M 66.16510760749566 0.5 L 67.2520902149913 0.5 L 67.2520902149913 3.5 L 74.2520902149913 0 L 67.2520902149913 -3.5 L 67.2520902149913 -0.5 L 66.16510760749566 -0.5 Z"/><text text-anchor="middle" pointer-events="none" font-size="8px" fill="#000000" x="46.12604510749565" y="3" font-family="Helvetica Neue, Helvetica, Arial, sans-serif">LOCAT…</text></g><g class="relationship" transform="translate(297.4405349936965 696.7797746839994) rotate(354.78901217677503)"><path class="b-outline" fill="#A5ABB6" stroke="none" d="M 25 0.5 L 52.31070430613056 0.5 L 52.31070430613056 -0.5 L 25 -0.5 Z M 109.58023555613056 0.5 L 136.89093986226112 0.5 L 136.89093986226112 3.5 L 143.89093986226112 0 L 136.89093986226112 -3.5 L 136.89093986226112 -0.5 L 109.58023555613056 -0.5 Z"/><text text-anchor="middle" pointer-events="none" font-size="8px" fill="#000000" x="80.94546993113056" y="3" font-family="Helvetica Neue, Helvetica, Arial, sans-serif">LOCATED_AT</text></g><g class="relationship" transform="translate(436.59747728812846 281.9817014783835) rotate(445.84258030897047)"><path class="b-outline" fill="#A5ABB6" stroke="none" d="M 25 0.5 L 168.1215810671568 0.5 L 168.1215810671568 -0.5 L 25 -0.5 Z M 225.3911123171568 0.5 L 368.5126933843136 0.5 L 368.5126933843136 3.5 L 375.5126933843136 0 L 368.5126933843136 -3.5 L 368.5126933843136 -0.5 L 225.3911123171568 -0.5 Z"/><text text-anchor="middle" pointer-events="none" font-size="8px" fill="#000000" x="196.7563466921568" y="3" font-family="Helvetica Neue, Helvetica, Arial, sans-serif">LOCATED_AT</text></g><g class="relationship" transform="translate(639.3734367978594 521.2722764423344) rotate(497.3275174435003)"><path class="b-outline" fill="#A5ABB6" stroke="none" d="M 25 0.5 L 86.01708863545842 0.5 L 86.01708863545842 -0.5 L 25 -0.5 Z M 143.28661988545844 0.5 L 204.30370852091684 0.5 L 204.30370852091684 3.5 L 211.30370852091684 0 L 204.30370852091684 -3.5 L 204.30370852091684 -0.5 L 143.28661988545844 -0.5 Z"/><text text-anchor="middle" pointer-events="none" font-size="8px" fill="#000000" x="114.65185426045842" y="3" transform="rotate(180 114.65185426045842 0)" font-family="Helvetica Neue, Helvetica, Arial, sans-serif">LOCATED_AT</text></g><g class="relationship" transform="translate(548.1040803266086 551.4380709122767) rotate(482.3901279941011)"><path class="b-outline" fill="#A5ABB6" stroke="none" d="M 25 0.5 L 44.84256237650686 0.5 L 44.84256237650686 -0.5 L 25 -0.5 Z M 102.11209362650686 0.5 L 121.95465600301372 0.5 L 121.95465600301372 3.5 L 128.95465600301372 0 L 121.95465600301372 -3.5 L 121.95465600301372 -0.5 L 102.11209362650686 -0.5 Z"/><text text-anchor="middle" pointer-events="none" font-size="8px" fill="#000000" x="73.47732800150686" y="3" transform="rotate(180 73.47732800150686 0)" font-family="Helvetica Neue, Helvetica, Arial, sans-serif">LOCATED_AT</text></g><g class="relationship" transform="translate(223.64933769363043 631.092817988187) rotate(371.75338440553605)"><path class="b-outline" fill="#A5ABB6" stroke="none" d="M 25 0.5 L 91.44840347509064 0.5 L 91.44840347509064 -0.5 L 25 -0.5 Z M 148.71793472509063 0.5 L 215.1663382001813 0.5 L 215.1663382001813 3.5 L 222.1663382001813 0 L 215.1663382001813 -3.5 L 215.1663382001813 -0.5 L 148.71793472509063 -0.5 Z"/><text text-anchor="middle" pointer-events="none" font-size="8px" fill="#000000" x="120.08316910009064" y="3" font-family="Helvetica Neue, Helvetica, Arial, sans-serif">LOCATED_AT</text></g><g class="relationship" transform="translate(297.4405349936965 696.7797746839994) rotate(221.67462410632544)"><path class="b-outline" fill="#A5ABB6" stroke="none" d="M 25 0.5 L 25.857083804481114 0.5 L 25.857083804481114 -0.5 L 25 -0.5 Z M 65.9352088044811 0.5 L 66.79229260896223 0.5 L 66.79229260896223 3.5 L 73.79229260896223 0 L 66.79229260896223 -3.5 L 66.79229260896223 -0.5 L 65.9352088044811 -0.5 Z"/><text text-anchor="middle" pointer-events="none" font-size="8px" fill="#000000" x="45.896146304481114" y="3" transform="rotate(180 45.896146304481114 0)" font-family="Helvetica Neue, Helvetica, Arial, sans-serif">LOCAT…</text></g><g class="relationship" transform="translate(397.20716351872926 372.78825615268005) rotate(276.5157140509305)"><path class="b-outline" fill="#A5ABB6" stroke="none" d="M 25 0.5 L 118.27444225427456 0.5 L 118.27444225427456 -0.5 L 25 -0.5 Z M 146.05959850427456 0.5 L 239.33404075854912 0.5 L 239.33404075854912 3.5 L 246.33404075854912 0 L 239.33404075854912 -3.5 L 239.33404075854912 -0.5 L 146.05959850427456 -0.5 Z"/><text text-anchor="middle" pointer-events="none" font-size="8px" fill="#000000" x="132.16702037927456" y="3" font-family="Helvetica Neue, Helvetica, Arial, sans-serif">USES</text></g><g class="relationship" transform="translate(397.20716351872926 372.78825615268005) rotate(189.69752844255623)"><path class="b-outline" fill="#A5ABB6" stroke="none" d="M 25 0.5 L 267.34667034180274 0.5 L 267.34667034180274 -0.5 L 25 -0.5 Z M 295.13182659180274 0.5 L 537.4784969336055 0.5 L 537.4784969336055 3.5 L 544.4784969336055 0 L 537.4784969336055 -3.5 L 537.4784969336055 -0.5 L 295.13182659180274 -0.5 Z"/><text text-anchor="middle" pointer-events="none" font-size="8px" fill="#000000" x="281.23924846680274" y="3" transform="rotate(180 281.23924846680274 0)" font-family="Helvetica Neue, Helvetica, Arial, sans-serif">USES</text></g><g class="relationship" transform="translate(397.20716351872926 372.78825615268005) rotate(520.1128973977227)"><path class="b-outline" fill="#A5ABB6" stroke="none" d="M 25 0.5 L 135.22373883256037 0.5 L 135.22373883256037 -0.5 L 25 -0.5 Z M 163.00889508256037 0.5 L 273.23263391512074 0.5 L 273.23263391512074 3.5 L 280.23263391512074 0 L 273.23263391512074 -3.5 L 273.23263391512074 -0.5 L 163.00889508256037 -0.5 Z"/><text text-anchor="middle" pointer-events="none" font-size="8px" fill="#000000" x="149.11631695756037" y="3" transform="rotate(180 149.11631695756037 0)" font-family="Helvetica Neue, Helvetica, Arial, sans-serif">USES</text></g><g class="relationship" transform="translate(397.20716351872926 372.78825615268005) rotate(248.6497731271744)"><path class="b-outline" fill="#A5ABB6" stroke="none" d="M 25 0.5 L 239.6715021198873 0.5 L 239.6715021198873 -0.5 L 25 -0.5 Z M 267.4566583698873 0.5 L 482.1281604897746 0.5 L 482.1281604897746 3.5 L 489.1281604897746 0 L 482.1281604897746 -3.5 L 482.1281604897746 -0.5 L 267.4566583698873 -0.5 Z"/><text text-anchor="middle" pointer-events="none" font-size="8px" fill="#000000" x="253.5640802448873" y="3" transform="rotate(180 253.5640802448873 0)" font-family="Helvetica Neue, Helvetica, Arial, sans-serif">USES</text></g><g class="relationship" transform="translate(397.20716351872926 372.78825615268005) rotate(249.83641104687706)"><path class="b-outline" fill="#A5ABB6" stroke="none" d="M 25 0.5 L 177.00365781236485 0.5 L 177.00365781236485 -0.5 L 25 -0.5 Z M 204.78881406236485 0.5 L 356.7924718747297 0.5 L 356.7924718747297 3.5 L 363.7924718747297 0 L 356.7924718747297 -3.5 L 356.7924718747297 -0.5 L 204.78881406236485 -0.5 Z"/><text text-anchor="middle" pointer-events="none" font-size="8px" fill="#000000" x="190.89623593736485" y="3" transform="rotate(180 190.89623593736485 0)" font-family="Helvetica Neue, Helvetica, Arial, sans-serif">USES</text></g><g class="relationship" transform="translate(397.20716351872926 372.78825615268005) rotate(230.3538311517582)"><path class="b-outline" fill="#A5ABB6" stroke="none" d="M 25 0.5 L 180.6909747388354 0.5 L 180.6909747388354 -0.5 L 25 -0.5 Z M 208.4761309888354 0.5 L 364.1671057276708 0.5 L 364.1671057276708 3.5 L 371.1671057276708 0 L 364.1671057276708 -3.5 L 364.1671057276708 -0.5 L 208.4761309888354 -0.5 Z"/><text text-anchor="middle" pointer-events="none" font-size="8px" fill="#000000" x="194.5835528638354" y="3" transform="rotate(180 194.5835528638354 0)" font-family="Helvetica Neue, Helvetica, Arial, sans-serif">USES</text></g><g class="relationship" transform="translate(397.20716351872926 372.78825615268005) rotate(271.4597182051081)"><path class="b-outline" fill="#A5ABB6" stroke="none" d="M 25 0.5 L 165.41678849349245 0.5 L 165.41678849349245 -0.5 L 25 -0.5 Z M 193.20194474349245 0.5 L 333.6187332369849 0.5 L 333.6187332369849 3.5 L 340.6187332369849 0 L 333.6187332369849 -3.5 L 333.6187332369849 -0.5 L 193.20194474349245 -0.5 Z"/><text text-anchor="middle" pointer-events="none" font-size="8px" fill="#000000" x="179.30936661849245" y="3" font-family="Helvetica Neue, Helvetica, Arial, sans-serif">USES</text></g><g class="relationship" transform="translate(397.20716351872926 372.78825615268005) rotate(223.2052598485676)"><path class="b-outline" fill="#A5ABB6" stroke="none" d="M 25 0.5 L 109.70410706519513 0.5 L 109.70410706519513 -0.5 L 25 -0.5 Z M 137.48926331519513 0.5 L 222.19337038039026 0.5 L 222.19337038039026 3.5 L 229.19337038039026 0 L 222.19337038039026 -3.5 L 222.19337038039026 -0.5 L 137.48926331519513 -0.5 Z"/><text text-anchor="middle" pointer-events="none" font-size="8px" fill="#000000" x="123.59668519019513" y="3" transform="rotate(180 123.59668519019513 0)" font-family="Helvetica Neue, Helvetica, Arial, sans-serif">USES</text></g><g class="relationship" transform="translate(397.20716351872926 372.78825615268005) rotate(312.98965837789876)"><path class="b-outline" fill="#A5ABB6" stroke="none" d="M 25 0.5 L 124.38252971291485 0.5 L 124.38252971291485 -0.5 L 25 -0.5 Z M 152.16768596291485 0.5 L 251.5502156758297 0.5 L 251.5502156758297 3.5 L 258.5502156758297 0 L 251.5502156758297 -3.5 L 251.5502156758297 -0.5 L 152.16768596291485 -0.5 Z"/><text text-anchor="middle" pointer-events="none" font-size="8px" fill="#000000" x="138.27510783791485" y="3" font-family="Helvetica Neue, Helvetica, Arial, sans-serif">USES</text></g><g class="relationship" transform="translate(397.20716351872926 372.78825615268005) rotate(352.7202071151139)"><path class="b-outline" fill="#A5ABB6" stroke="none" d="M 25 0.5 L 129.8528773689817 0.5 L 129.8528773689817 -0.5 L 25 -0.5 Z M 157.6380336189817 0.5 L 262.4909109879634 0.5 L 262.4909109879634 3.5 L 269.4909109879634 0 L 262.4909109879634 -3.5 L 262.4909109879634 -0.5 L 157.6380336189817 -0.5 Z"/><text text-anchor="middle" pointer-events="none" font-size="8px" fill="#000000" x="143.7454554939817" y="3" font-family="Helvetica Neue, Helvetica, Arial, sans-serif">USES</text></g><g class="relationship" transform="translate(397.20716351872926 372.78825615268005) rotate(383.45131643489754)"><path class="b-outline" fill="#A5ABB6" stroke="none" d="M 25 0.5 L 71.82357528538313 0.5 L 71.82357528538313 -0.5 L 25 -0.5 Z M 99.60873153538313 0.5 L 146.43230682076626 0.5 L 146.43230682076626 3.5 L 153.43230682076626 0 L 146.43230682076626 -3.5 L 146.43230682076626 -0.5 L 99.60873153538313 -0.5 Z"/><text text-anchor="middle" pointer-events="none" font-size="8px" fill="#000000" x="85.71615341038313" y="3" font-family="Helvetica Neue, Helvetica, Arial, sans-serif">USES</text></g><g class="relationship" transform="translate(397.20716351872926 372.78825615268005) rotate(371.75723805296786)"><path class="b-outline" fill="#A5ABB6" stroke="none" d="M 25 0.5 L 114.11187377563556 0.5 L 114.11187377563556 -0.5 L 25 -0.5 Z M 141.89703002563556 0.5 L 231.00890380127112 0.5 L 231.00890380127112 3.5 L 238.00890380127112 0 L 231.00890380127112 -3.5 L 231.00890380127112 -0.5 L 141.89703002563556 -0.5 Z"/><text text-anchor="middle" pointer-events="none" font-size="8px" fill="#000000" x="128.00445190063556" y="3" font-family="Helvetica Neue, Helvetica, Arial, sans-serif">USES</text></g><g class="relationship" transform="translate(397.20716351872926 372.78825615268005) rotate(239.24365678542756)"><path class="b-outline" fill="#A5ABB6" stroke="none" d="M 25 0.5 L 139.5754767459583 0.5 L 139.5754767459583 -0.5 L 25 -0.5 Z M 167.3606329959583 0.5 L 281.9361097419166 0.5 L 281.9361097419166 3.5 L 288.9361097419166 0 L 281.9361097419166 -3.5 L 281.9361097419166 -0.5 L 167.3606329959583 -0.5 Z"/><text text-anchor="middle" pointer-events="none" font-size="8px" fill="#000000" x="153.4680548709583" y="3" transform="rotate(180 153.4680548709583 0)" font-family="Helvetica Neue, Helvetica, Arial, sans-serif">USES</text></g><g class="relationship" transform="translate(397.20716351872926 372.78825615268005) rotate(257.64675950914915)"><path class="b-outline" fill="#A5ABB6" stroke="none" d="M 25 0.5 L 133.0422684246738 0.5 L 133.0422684246738 -0.5 L 25 -0.5 Z M 160.8274246746738 0.5 L 268.8696930993476 0.5 L 268.8696930993476 3.5 L 275.8696930993476 0 L 268.8696930993476 -3.5 L 268.8696930993476 -0.5 L 160.8274246746738 -0.5 Z"/><text text-anchor="middle" pointer-events="none" font-size="8px" fill="#000000" x="146.9348465496738" y="3" transform="rotate(180 146.9348465496738 0)" font-family="Helvetica Neue, Helvetica, Arial, sans-serif">USES</text></g><g class="relationship" transform="translate(397.20716351872926 372.78825615268005) rotate(492.5582431089423)"><path class="b-outline" fill="#A5ABB6" stroke="none" d="M 25 0.5 L 56.28213195382311 0.5 L 56.28213195382311 -0.5 L 25 -0.5 Z M 84.06728820382311 0.5 L 115.34942015764622 0.5 L 115.34942015764622 3.5 L 122.34942015764622 0 L 115.34942015764622 -3.5 L 115.34942015764622 -0.5 L 84.06728820382311 -0.5 Z"/><text text-anchor="middle" pointer-events="none" font-size="8px" fill="#000000" x="70.17471007882311" y="3" transform="rotate(180 70.17471007882311 0)" font-family="Helvetica Neue, Helvetica, Arial, sans-serif">USES</text></g><g class="relationship" transform="translate(397.20716351872926 372.78825615268005) rotate(414.89049286032287)"><path class="b-outline" fill="#A5ABB6" stroke="none" d="M 25 0.5 L 50.87788389231454 0.5 L 50.87788389231454 -0.5 L 25 -0.5 Z M 78.66304014231454 0.5 L 104.54092403462909 0.5 L 104.54092403462909 3.5 L 111.54092403462909 0 L 104.54092403462909 -3.5 L 104.54092403462909 -0.5 L 78.66304014231454 -0.5 Z"/><text text-anchor="middle" pointer-events="none" font-size="8px" fill="#000000" x="64.77046201731454" y="3" font-family="Helvetica Neue, Helvetica, Arial, sans-serif">USES</text></g><g class="relationship" transform="translate(210.02963774714144 -106.05654047209904) rotate(302.06237320985633)"><path class="b-outline" fill="#A5ABB6" stroke="none" d="M 25 0.5 L 73.84945073121256 0.5 L 73.84945073121256 -0.5 L 25 -0.5 Z M 101.63460698121256 0.5 L 150.4840577124251 0.5 L 150.4840577124251 3.5 L 157.4840577124251 0 L 150.4840577124251 -3.5 L 150.4840577124251 -0.5 L 101.63460698121256 -0.5 Z"/><text text-anchor="middle" pointer-events="none" font-size="8px" fill="#000000" x="87.74202885621256" y="3" font-family="Helvetica Neue, Helvetica, Arial, sans-serif">USES</text></g><g class="relationship" transform="translate(210.02963774714144 -106.05654047209904) rotate(249.00481957801532)"><path class="b-outline" fill="#A5ABB6" stroke="none" d="M 25 0.5 L 83.82485748144494 0.5 L 83.82485748144494 -0.5 L 25 -0.5 Z M 111.61001373144494 0.5 L 170.43487121288987 0.5 L 170.43487121288987 3.5 L 177.43487121288987 0 L 170.43487121288987 -3.5 L 170.43487121288987 -0.5 L 111.61001373144494 -0.5 Z"/><text text-anchor="middle" pointer-events="none" font-size="8px" fill="#000000" x="97.71743560644494" y="3" transform="rotate(180 97.71743560644494 0)" font-family="Helvetica Neue, Helvetica, Arial, sans-serif">USES</text></g><g class="relationship" transform="translate(210.02963774714144 -106.05654047209904) rotate(222.98515362767807)"><path class="b-outline" fill="#A5ABB6" stroke="none" d="M 25 0.5 L 94.92791349722344 0.5 L 94.92791349722344 -0.5 L 25 -0.5 Z M 122.71306974722344 0.5 L 192.6409832444469 0.5 L 192.6409832444469 3.5 L 199.6409832444469 0 L 192.6409832444469 -3.5 L 192.6409832444469 -0.5 L 122.71306974722344 -0.5 Z"/><text text-anchor="middle" pointer-events="none" font-size="8px" fill="#000000" x="108.82049162222344" y="3" transform="rotate(180 108.82049162222344 0)" font-family="Helvetica Neue, Helvetica, Arial, sans-serif">USES</text></g><g class="relationship" transform="translate(210.02963774714144 -106.05654047209904) rotate(442.7397485352633)"><path class="b-outline" fill="#A5ABB6" stroke="none" d="M 25 0.5 L 87.98422739024413 0.5 L 87.98422739024413 -0.5 L 25 -0.5 Z M 115.76938364024413 0.5 L 178.75361103048826 0.5 L 178.75361103048826 3.5 L 185.75361103048826 0 L 178.75361103048826 -3.5 L 178.75361103048826 -0.5 L 115.76938364024413 -0.5 Z"/><text text-anchor="middle" pointer-events="none" font-size="8px" fill="#000000" x="101.87680551524413" y="3" font-family="Helvetica Neue, Helvetica, Arial, sans-serif">USES</text></g><g class="relationship" transform="translate(210.02963774714144 -106.05654047209904) rotate(416.4138759647034)"><path class="b-outline" fill="#A5ABB6" stroke="none" d="M 25 0.5 L 93.60911240941947 0.5 L 93.60911240941947 -0.5 L 25 -0.5 Z M 121.39426865941947 0.5 L 190.00338106883893 0.5 L 190.00338106883893 3.5 L 197.00338106883893 0 L 190.00338106883893 -3.5 L 190.00338106883893 -0.5 L 121.39426865941947 -0.5 Z"/><text text-anchor="middle" pointer-events="none" font-size="8px" fill="#000000" x="107.50169053441947" y="3" font-family="Helvetica Neue, Helvetica, Arial, sans-serif">USES</text></g><g class="relationship" transform="translate(210.02963774714144 -106.05654047209904) rotate(403.8328728818316)"><path class="b-outline" fill="#A5ABB6" stroke="none" d="M 25 0.5 L 124.7950547855223 0.5 L 124.7950547855223 -0.5 L 25 -0.5 Z M 170.3653672855223 0.5 L 270.1604220710446 0.5 L 270.1604220710446 3.5 L 277.1604220710446 0 L 270.1604220710446 -3.5 L 270.1604220710446 -0.5 L 170.3653672855223 -0.5 Z"/><text text-anchor="middle" pointer-events="none" font-size="8px" fill="#000000" x="147.5802110355223" y="3" font-family="Helvetica Neue, Helvetica, Arial, sans-serif">DELIVERS</text></g><g class="relationship" transform="translate(263.18972822643406 7.823993211583348) rotate(513.2275120117193)"><path class="b-outline" fill="#A5ABB6" stroke="none" d="M 25 0.5 L 40.22166313309644 0.5 L 40.22166313309644 -0.5 L 25 -0.5 Z M 85.79197563309644 0.5 L 101.01363876619288 0.5 L 101.01363876619288 3.5 L 108.01363876619288 0 L 101.01363876619288 -3.5 L 101.01363876619288 -0.5 L 85.79197563309644 -0.5 Z"/><text text-anchor="middle" pointer-events="none" font-size="8px" fill="#000000" x="63.00681938309644" y="3" transform="rotate(180 63.00681938309644 0)" font-family="Helvetica Neue, Helvetica, Arial, sans-serif">DELIVERS</text></g><g class="relationship" transform="translate(263.18972822643406 7.823993211583348) rotate(359.7858101605202)"><path class="b-outline" fill="#A5ABB6" stroke="none" d="M 25 0.5 L 45.380972257517485 0.5 L 45.380972257517485 -0.5 L 25 -0.5 Z M 90.95128475751748 0.5 L 111.33225701503497 0.5 L 111.33225701503497 3.5 L 118.33225701503497 0 L 111.33225701503497 -3.5 L 111.33225701503497 -0.5 L 90.95128475751748 -0.5 Z"/><text text-anchor="middle" pointer-events="none" font-size="8px" fill="#000000" x="68.16612850751748" y="3" font-family="Helvetica Neue, Helvetica, Arial, sans-serif">DELIVERS</text></g><g class="relationship" transform="translate(263.18972822643406 7.823993211583348) rotate(465.0289410597717)"><path class="b-outline" fill="#A5ABB6" stroke="none" d="M 25 0.5 L 72.56600934938916 0.5 L 72.56600934938916 -0.5 L 25 -0.5 Z M 118.13632184938916 0.5 L 165.70233119877832 0.5 L 165.70233119877832 3.5 L 172.70233119877832 0 L 165.70233119877832 -3.5 L 165.70233119877832 -0.5 L 118.13632184938916 -0.5 Z"/><text text-anchor="middle" pointer-events="none" font-size="8px" fill="#000000" x="95.35116559938916" y="3" transform="rotate(180 95.35116559938916 0)" font-family="Helvetica Neue, Helvetica, Arial, sans-serif">DELIVERS</text></g><g class="relationship" transform="translate(144.43485681089084 67.73983930342327) rotate(347.0115577780808)"><path class="b-outline" fill="#A5ABB6" stroke="none" d="M 25 0.5 L 117.09119587825128 0.5 L 117.09119587825128 -0.5 L 25 -0.5 Z M 144.87635212825128 0.5 L 236.96754800650257 0.5 L 236.96754800650257 3.5 L 243.96754800650257 0 L 236.96754800650257 -3.5 L 236.96754800650257 -0.5 L 144.87635212825128 -0.5 Z"/><text text-anchor="middle" pointer-events="none" font-size="8px" fill="#000000" x="130.98377400325128" y="3" font-family="Helvetica Neue, Helvetica, Arial, sans-serif">USES</text></g><g class="relationship" transform="translate(406.520983706992 7.28817291422412) rotate(400.6640686183058)"><path class="b-outline" fill="#A5ABB6" stroke="none" d="M 25 0.5 L 103.91201271346617 0.5 L 103.91201271346617 -0.5 L 25 -0.5 Z M 131.69716896346617 0.5 L 210.60918167693234 0.5 L 210.60918167693234 3.5 L 217.60918167693234 0 L 210.60918167693234 -3.5 L 210.60918167693234 -0.5 L 131.69716896346617 -0.5 Z"/><text text-anchor="middle" pointer-events="none" font-size="8px" fill="#000000" x="117.80459083846617" y="3" font-family="Helvetica Neue, Helvetica, Arial, sans-serif">USES</text></g><g class="relationship" transform="translate(590.5505121405836 165.37785536839527) rotate(534.9608755180949)"><path class="b-outline" fill="#A5ABB6" stroke="none" d="M 25 0.5 L 172.65514855592755 0.5 L 172.65514855592755 -0.5 L 25 -0.5 Z M 200.44030480592755 0.5 L 348.0954533618551 0.5 L 348.0954533618551 3.5 L 355.0954533618551 0 L 348.0954533618551 -3.5 L 348.0954533618551 -0.5 L 200.44030480592755 -0.5 Z"/><text text-anchor="middle" pointer-events="none" font-size="8px" fill="#000000" x="186.54772668092755" y="3" transform="rotate(180 186.54772668092755 0)" font-family="Helvetica Neue, Helvetica, Arial, sans-serif">USES</text></g><g class="relationship" transform="translate(590.5505121405836 165.37785536839527) rotate(419.8562361502583)"><path class="b-outline" fill="#A5ABB6" stroke="none" d="M 25 0.5 L 80.95404777942153 0.5 L 80.95404777942153 -0.5 L 25 -0.5 Z M 108.73920402942153 0.5 L 164.69325180884306 0.5 L 164.69325180884306 3.5 L 171.69325180884306 0 L 164.69325180884306 -3.5 L 164.69325180884306 -0.5 L 108.73920402942153 -0.5 Z"/><text text-anchor="middle" pointer-events="none" font-size="8px" fill="#000000" x="94.84662590442153" y="3" font-family="Helvetica Neue, Helvetica, Arial, sans-serif">USES</text></g><g class="relationship" transform="translate(689.324240444311 335.47190554099353) rotate(191.95042086973666)"><path class="b-outline" fill="#A5ABB6" stroke="none" d="M 25 0.5 L 104.06895625267657 0.5 L 104.06895625267657 -0.5 L 25 -0.5 Z M 147.25645625267657 0.5 L 226.32541250535314 0.5 L 226.32541250535314 3.5 L 233.32541250535314 0 L 226.32541250535314 -3.5 L 226.32541250535314 -0.5 L 147.25645625267657 -0.5 Z"/><text text-anchor="middle" pointer-events="none" font-size="8px" fill="#000000" x="125.66270625267657" y="3" transform="rotate(180 125.66270625267657 0)" font-family="Helvetica Neue, Helvetica, Arial, sans-serif">TARGETS</text></g><g class="relationship" transform="translate(689.324240444311 335.47190554099353) rotate(465.0476766022269)"><path class="b-outline" fill="#A5ABB6" stroke="none" d="M 25 0.5 L 71.10508134945323 0.5 L 71.10508134945323 -0.5 L 25 -0.5 Z M 114.29258134945323 0.5 L 160.39766269890646 0.5 L 160.39766269890646 3.5 L 167.39766269890646 0 L 160.39766269890646 -3.5 L 160.39766269890646 -0.5 L 114.29258134945323 -0.5 Z"/><text text-anchor="middle" pointer-events="none" font-size="8px" fill="#000000" x="92.69883134945323" y="3" transform="rotate(180 92.69883134945323 0)" font-family="Helvetica Neue, Helvetica, Arial, sans-serif">TARGETS</text></g><g class="relationship" transform="translate(689.324240444311 335.47190554099353) rotate(499.85191216043813)"><path class="b-outline" fill="#A5ABB6" stroke="none" d="M 25 0.5 L 66.61239862010619 0.5 L 66.61239862010619 -0.5 L 25 -0.5 Z M 94.39755487010619 0.5 L 136.00995349021238 0.5 L 136.00995349021238 3.5 L 143.00995349021238 0 L 136.00995349021238 -3.5 L 136.00995349021238 -0.5 L 94.39755487010619 -0.5 Z"/><text text-anchor="middle" pointer-events="none" font-size="8px" fill="#000000" x="80.50497674510619" y="3" transform="rotate(180 80.50497674510619 0)" font-family="Helvetica Neue, Helvetica, Arial, sans-serif">USES</text></g><g class="relationship" transform="translate(689.324240444311 335.47190554099353) rotate(470.85135893207746)"><path class="b-outline" fill="#A5ABB6" stroke="none" d="M 25 0.5 L 31.247225588630876 0.5 L 31.247225588630876 -0.5 L 25 -0.5 Z M 59.032381838630876 0.5 L 65.27960742726175 0.5 L 65.27960742726175 3.5 L 72.27960742726175 0 L 65.27960742726175 -3.5 L 65.27960742726175 -0.5 L 59.032381838630876 -0.5 Z"/><text text-anchor="middle" pointer-events="none" font-size="8px" fill="#000000" x="45.139803713630876" y="3" transform="rotate(180 45.139803713630876 0)" font-family="Helvetica Neue, Helvetica, Arial, sans-serif">USES</text></g><g class="relationship" transform="translate(-228.5657297010975 423.8582547035693) rotate(293.6688526321003)"><path class="b-outline" fill="#A5ABB6" stroke="none" d="M 25 0.5 L 52.709828005060984 0.5 L 52.709828005060984 -0.5 L 25 -0.5 Z M 100.78795300506098 0.5 L 128.49778101012197 0.5 L 128.49778101012197 3.5 L 135.49778101012197 0 L 128.49778101012197 -3.5 L 128.49778101012197 -0.5 L 100.78795300506098 -0.5 Z"/><text text-anchor="middle" pointer-events="none" font-size="8px" fill="#000000" x="76.74889050506098" y="3" font-family="Helvetica Neue, Helvetica, Arial, sans-serif">INDICATES</text></g><g class="relationship" transform="translate(-186.0967075544858 115.00728763463233) rotate(442.2724445738626)"><path class="b-outline" fill="#A5ABB6" stroke="none" d="M 25 0.5 L 54.12965208231242 0.5 L 54.12965208231242 -0.5 L 25 -0.5 Z M 102.20777708231242 0.5 L 131.33742916462484 0.5 L 131.33742916462484 3.5 L 138.33742916462484 0 L 131.33742916462484 -3.5 L 131.33742916462484 -0.5 L 102.20777708231242 -0.5 Z"/><text text-anchor="middle" pointer-events="none" font-size="8px" fill="#000000" x="78.16871458231242" y="3" font-family="Helvetica Neue, Helvetica, Arial, sans-serif">INDICATES</text></g><g class="relationship" transform="translate(-281.16409248154446 138.77756960846892) rotate(409.71772227100047)"><path class="b-outline" fill="#A5ABB6" stroke="none" d="M 25 0.5 L 62.96398546843909 0.5 L 62.96398546843909 -0.5 L 25 -0.5 Z M 111.04211046843909 0.5 L 149.00609593687818 0.5 L 149.00609593687818 3.5 L 156.00609593687818 0 L 149.00609593687818 -3.5 L 149.00609593687818 -0.5 L 111.04211046843909 -0.5 Z"/><text text-anchor="middle" pointer-events="none" font-size="8px" fill="#000000" x="87.00304796843909" y="3" font-family="Helvetica Neue, Helvetica, Arial, sans-serif">INDICATES</text></g><g class="relationship" transform="translate(-366.00419807347697 188.827816176224) rotate(383.56152485818626)"><path class="b-outline" fill="#A5ABB6" stroke="none" d="M 25 0.5 L 82.57624716279167 0.5 L 82.57624716279167 -0.5 L 25 -0.5 Z M 130.65437216279167 0.5 L 188.23061932558335 0.5 L 188.23061932558335 3.5 L 195.23061932558335 0 L 188.23061932558335 -3.5 L 188.23061932558335 -0.5 L 130.65437216279167 -0.5 Z"/><text text-anchor="middle" pointer-events="none" font-size="8px" fill="#000000" x="106.61530966279167" y="3" font-family="Helvetica Neue, Helvetica, Arial, sans-serif">INDICATES</text></g><g class="relationship" transform="translate(-282.88428500151264 237.8502968299612) rotate(378.1860465573737)"><path class="b-outline" fill="#A5ABB6" stroke="none" d="M 25 0.5 L 34.95797401730479 0.5 L 34.95797401730479 -0.5 L 25 -0.5 Z M 83.03609901730479 0.5 L 92.99407303460958 0.5 L 92.99407303460958 3.5 L 99.99407303460958 0 L 92.99407303460958 -3.5 L 92.99407303460958 -0.5 L 83.03609901730479 -0.5 Z"/><text text-anchor="middle" pointer-events="none" font-size="8px" fill="#000000" x="58.99703651730479" y="3" font-family="Helvetica Neue, Helvetica, Arial, sans-serif">INDICATES</text></g><g class="relationship" transform="translate(-366.549756463587 287.24992529214643) rotate(357.06200215237595)"><path class="b-outline" fill="#A5ABB6" stroke="none" d="M 25 0.5 L 73.80206754721486 0.5 L 73.80206754721486 -0.5 L 25 -0.5 Z M 121.88019254721486 0.5 L 170.68226009442972 0.5 L 170.68226009442972 3.5 L 177.68226009442972 0 L 170.68226009442972 -3.5 L 170.68226009442972 -0.5 L 121.88019254721486 -0.5 Z"/><text text-anchor="middle" pointer-events="none" font-size="8px" fill="#000000" x="97.84113004721486" y="3" font-family="Helvetica Neue, Helvetica, Arial, sans-serif">INDICATES</text></g><g class="relationship" transform="translate(-308.4334121453381 366.81862744558475) rotate(328.06032268114535)"><path class="b-outline" fill="#A5ABB6" stroke="none" d="M 25 0.5 L 57.48248181915808 0.5 L 57.48248181915808 -0.5 L 25 -0.5 Z M 105.56060681915808 0.5 L 138.04308863831616 0.5 L 138.04308863831616 3.5 L 145.04308863831616 0 L 138.04308863831616 -3.5 L 138.04308863831616 -0.5 L 105.56060681915808 -0.5 Z"/><text text-anchor="middle" pointer-events="none" font-size="8px" fill="#000000" x="81.52154431915808" y="3" font-family="Helvetica Neue, Helvetica, Arial, sans-serif">INDICATES</text></g><g class="relationship" transform="translate(-63.64331082418776 495.847123886481) rotate(353.68743951081285)"><path class="b-outline" fill="#A5ABB6" stroke="none" d="M 25 0.5 L 59.901336031686114 0.5 L 59.901336031686114 -0.5 L 25 -0.5 Z M 107.97946103168611 0.5 L 142.88079706337223 0.5 L 142.88079706337223 3.5 L 149.88079706337223 0 L 142.88079706337223 -3.5 L 142.88079706337223 -0.5 L 107.97946103168611 -0.5 Z"/><text text-anchor="middle" pointer-events="none" font-size="8px" fill="#000000" x="83.94039853168611" y="3" font-family="Helvetica Neue, Helvetica, Arial, sans-serif">INDICATES</text></g><g class="relationship" transform="translate(-27.297534864138186 588.1698114395926) rotate(320.9430575273471)"><path class="b-outline" fill="#A5ABB6" stroke="none" d="M 25 0.5 L 60.98066179012392 0.5 L 60.98066179012392 -0.5 L 25 -0.5 Z M 109.05878679012392 0.5 L 145.03944858024784 0.5 L 145.03944858024784 3.5 L 152.03944858024784 0 L 145.03944858024784 -3.5 L 145.03944858024784 -0.5 L 109.05878679012392 -0.5 Z"/><text text-anchor="middle" pointer-events="none" font-size="8px" fill="#000000" x="85.01972429012392" y="3" font-family="Helvetica Neue, Helvetica, Arial, sans-serif">INDICATES</text></g><g class="relationship" transform="translate(292.7889688370775 -160.71761106682592) rotate(459.9606978310971)"><path class="b-outline" fill="#A5ABB6" stroke="none" d="M 25 0.5 L 58.02142402483615 0.5 L 58.02142402483615 -0.5 L 25 -0.5 Z M 106.09954902483615 0.5 L 139.1209730496723 0.5 L 139.1209730496723 3.5 L 146.1209730496723 0 L 139.1209730496723 -3.5 L 139.1209730496723 -0.5 L 106.09954902483615 -0.5 Z"/><text text-anchor="middle" pointer-events="none" font-size="8px" fill="#000000" x="82.06048652483615" y="3" transform="rotate(180 82.06048652483615 0)" font-family="Helvetica Neue, Helvetica, Arial, sans-serif">INDICATES</text></g><g class="relationship" transform="translate(33.73077382015941 -61.99305870590276) rotate(409.52510665294494)"><path class="b-outline" fill="#A5ABB6" stroke="none" d="M 25 0.5 L 57.734055797498854 0.5 L 57.734055797498854 -0.5 L 25 -0.5 Z M 105.81218079749885 0.5 L 138.5462365949977 0.5 L 138.5462365949977 3.5 L 145.5462365949977 0 L 138.5462365949977 -3.5 L 138.5462365949977 -0.5 L 105.81218079749885 -0.5 Z"/><text text-anchor="middle" pointer-events="none" font-size="8px" fill="#000000" x="81.77311829749885" y="3" font-family="Helvetica Neue, Helvetica, Arial, sans-serif">INDICATES</text></g><g class="relationship" transform="translate(-26.626376588083605 16.369760393411713) rotate(376.7151323942443)"><path class="b-outline" fill="#A5ABB6" stroke="none" d="M 25 0.5 L 61.764955577574796 0.5 L 61.764955577574796 -0.5 L 25 -0.5 Z M 109.8430805775748 0.5 L 146.6080361551496 0.5 L 146.6080361551496 3.5 L 153.6080361551496 0 L 146.6080361551496 -3.5 L 146.6080361551496 -0.5 L 109.8430805775748 -0.5 Z"/><text text-anchor="middle" pointer-events="none" font-size="8px" fill="#000000" x="85.8040180775748" y="3" font-family="Helvetica Neue, Helvetica, Arial, sans-serif">INDICATES</text></g><g class="relationship" transform="translate(471.88828121674055 -156.84893101473503) rotate(471.71482813089733)"><path class="b-outline" fill="#A5ABB6" stroke="none" d="M 25 0.5 L 60.7981783301192 0.5 L 60.7981783301192 -0.5 L 25 -0.5 Z M 108.8763033301192 0.5 L 144.6744816602384 0.5 L 144.6744816602384 3.5 L 151.6744816602384 0 L 144.6744816602384 -3.5 L 144.6744816602384 -0.5 L 108.8763033301192 -0.5 Z"/><text text-anchor="middle" pointer-events="none" font-size="8px" fill="#000000" x="84.8372408301192" y="3" transform="rotate(180 84.8372408301192 0)" font-family="Helvetica Neue, Helvetica, Arial, sans-serif">INDICATES</text></g><g class="relationship" transform="translate(58.31117263363259 124.8406451775284) rotate(385.69828385253754)"><path class="b-outline" fill="#A5ABB6" stroke="none" d="M 25 0.5 L 57.698245543797086 0.5 L 57.698245543797086 -0.5 L 25 -0.5 Z M 105.77637054379709 0.5 L 138.47461608759417 0.5 L 138.47461608759417 3.5 L 145.47461608759417 0 L 138.47461608759417 -3.5 L 138.47461608759417 -0.5 L 105.77637054379709 -0.5 Z"/><text text-anchor="middle" pointer-events="none" font-size="8px" fill="#000000" x="81.73730804379709" y="3" font-family="Helvetica Neue, Helvetica, Arial, sans-serif">INDICATES</text></g><g class="relationship" transform="translate(512.4307819215801 -50.81507598810318) rotate(478.73126439673035)"><path class="b-outline" fill="#A5ABB6" stroke="none" d="M 25 0.5 L 60.28435635720952 0.5 L 60.28435635720952 -0.5 L 25 -0.5 Z M 108.36248135720952 0.5 L 143.64683771441904 0.5 L 143.64683771441904 3.5 L 150.64683771441904 0 L 143.64683771441904 -3.5 L 143.64683771441904 -0.5 L 108.36248135720952 -0.5 Z"/><text text-anchor="middle" pointer-events="none" font-size="8px" fill="#000000" x="84.32341885720952" y="3" transform="rotate(180 84.32341885720952 0)" font-family="Helvetica Neue, Helvetica, Arial, sans-serif">INDICATES</text></g><g class="relationship" transform="translate(493.20871444700987 358.7291918936441) rotate(255.68317965872438)"><path class="b-outline" fill="#A5ABB6" stroke="none" d="M 25 0.5 L 104.31715650868051 0.5 L 104.31715650868051 -0.5 L 25 -0.5 Z M 152.3952815086805 0.5 L 231.71243801736102 0.5 L 231.71243801736102 3.5 L 238.71243801736102 0 L 231.71243801736102 -3.5 L 231.71243801736102 -0.5 L 152.3952815086805 -0.5 Z"/><text text-anchor="middle" pointer-events="none" font-size="8px" fill="#000000" x="128.3562190086805" y="3" transform="rotate(180 128.3562190086805 0)" font-family="Helvetica Neue, Helvetica, Arial, sans-serif">INDICATES</text></g><g class="relationship" transform="translate(231.61072851809368 -325.3253235757003) rotate(455.6211182308345)"><path class="b-outline" fill="#A5ABB6" stroke="none" d="M 25 0.5 L 82.62506814445955 0.5 L 82.62506814445955 -0.5 L 25 -0.5 Z M 130.70319314445953 0.5 L 188.3282612889191 0.5 L 188.3282612889191 3.5 L 195.3282612889191 0 L 188.3282612889191 -3.5 L 188.3282612889191 -0.5 L 130.70319314445953 -0.5 Z"/><text text-anchor="middle" pointer-events="none" font-size="8px" fill="#000000" x="106.66413064445955" y="3" transform="rotate(180 106.66413064445955 0)" font-family="Helvetica Neue, Helvetica, Arial, sans-serif">INDICATES</text></g><g class="relationship" transform="translate(213.24240872981883 -231.96468651907216) rotate(451.4616868545354)"><path class="b-outline" fill="#A5ABB6" stroke="none" d="M 25 0.5 L 35.43550208438805 0.5 L 35.43550208438805 -0.5 L 25 -0.5 Z M 83.51362708438805 0.5 L 93.9491291687761 0.5 L 93.9491291687761 3.5 L 100.9491291687761 0 L 93.9491291687761 -3.5 L 93.9491291687761 -0.5 L 83.51362708438805 -0.5 Z"/><text text-anchor="middle" pointer-events="none" font-size="8px" fill="#000000" x="59.47456458438805" y="3" transform="rotate(180 59.47456458438805 0)" font-family="Helvetica Neue, Helvetica, Arial, sans-serif">INDICATES</text></g><g class="relationship" transform="translate(119.55777735215518 -198.30130782682585) rotate(405.5559258607465)"><path class="b-outline" fill="#A5ABB6" stroke="none" d="M 25 0.5 L 37.06406170397629 0.5 L 37.06406170397629 -0.5 L 25 -0.5 Z M 85.1421867039763 0.5 L 97.20624840795259 0.5 L 97.20624840795259 3.5 L 104.20624840795259 0 L 97.20624840795259 -3.5 L 97.20624840795259 -0.5 L 85.1421867039763 -0.5 Z"/><text text-anchor="middle" pointer-events="none" font-size="8px" fill="#000000" x="61.10312420397629" y="3" font-family="Helvetica Neue, Helvetica, Arial, sans-serif">INDICATES</text></g><g class="relationship" transform="translate(28.72419038963579 -161.54952793582535) rotate(377.0180175424041)"><path class="b-outline" fill="#A5ABB6" stroke="none" d="M 25 0.5 L 67.26486265496726 0.5 L 67.26486265496726 -0.5 L 25 -0.5 Z M 115.34298765496726 0.5 L 157.60785030993452 0.5 L 157.60785030993452 3.5 L 164.60785030993452 0 L 157.60785030993452 -3.5 L 157.60785030993452 -0.5 L 115.34298765496726 -0.5 Z"/><text text-anchor="middle" pointer-events="none" font-size="8px" fill="#000000" x="91.30392515496726" y="3" font-family="Helvetica Neue, Helvetica, Arial, sans-serif">INDICATES</text></g><g class="relationship" transform="translate(397.20716351872926 372.78825615268005) rotate(434.7969022351892)"><path class="b-outline" fill="#A5ABB6" stroke="none" d="M 25 0.5 L 91.92054769061781 0.5 L 91.92054769061781 -0.5 L 25 -0.5 Z M 119.70570394061781 0.5 L 186.62625163123562 0.5 L 186.62625163123562 3.5 L 193.62625163123562 0 L 186.62625163123562 -3.5 L 186.62625163123562 -0.5 L 119.70570394061781 -0.5 Z"/><text text-anchor="middle" pointer-events="none" font-size="8px" fill="#000000" x="105.81312581561781" y="3" font-family="Helvetica Neue, Helvetica, Arial, sans-serif">USES</text></g><g class="relationship" transform="translate(397.20716351872926 372.78825615268005) rotate(498.5599638556783)"><path class="b-outline" fill="#A5ABB6" stroke="none" d="M 25 0.5 L 103.74129842027033 0.5 L 103.74129842027033 -0.5 L 25 -0.5 Z M 131.5264546702703 0.5 L 210.26775309054065 0.5 L 210.26775309054065 3.5 L 217.26775309054065 0 L 210.26775309054065 -3.5 L 210.26775309054065 -0.5 L 131.5264546702703 -0.5 Z"/><text text-anchor="middle" pointer-events="none" font-size="8px" fill="#000000" x="117.63387654527033" y="3" transform="rotate(180 117.63387654527033 0)" font-family="Helvetica Neue, Helvetica, Arial, sans-serif">USES</text></g><g class="relationship" transform="translate(397.20716351872926 372.78825615268005) rotate(237.95507748095702)"><path class="b-outline" fill="#A5ABB6" stroke="none" d="M 25 0.5 L 44.14009365399666 0.5 L 44.14009365399666 -0.5 L 25 -0.5 Z M 71.92524990399666 0.5 L 91.06534355799332 0.5 L 91.06534355799332 3.5 L 98.06534355799332 0 L 91.06534355799332 -3.5 L 91.06534355799332 -0.5 L 71.92524990399666 -0.5 Z"/><text text-anchor="middle" pointer-events="none" font-size="8px" fill="#000000" x="58.03267177899666" y="3" transform="rotate(180 58.03267177899666 0)" font-family="Helvetica Neue, Helvetica, Arial, sans-serif">USES</text></g><g class="relationship" transform="translate(397.20716351872926 372.78825615268005) rotate(244.57778571156405)"><path class="b-outline" fill="#A5ABB6" stroke="none" d="M 25 0.5 L 93.42468991559346 0.5 L 93.42468991559346 -0.5 L 25 -0.5 Z M 121.20984616559346 0.5 L 189.63453608118692 0.5 L 189.63453608118692 3.5 L 196.63453608118692 0 L 189.63453608118692 -3.5 L 189.63453608118692 -0.5 L 121.20984616559346 -0.5 Z"/><text text-anchor="middle" pointer-events="none" font-size="8px" fill="#000000" x="107.31726804059346" y="3" transform="rotate(180 107.31726804059346 0)" font-family="Helvetica Neue, Helvetica, Arial, sans-serif">USES</text></g><g class="relationship" transform="translate(397.20716351872926 372.78825615268005) rotate(533.917447730795)"><path class="b-outline" fill="#A5ABB6" stroke="none" d="M 25 0.5 L 32.870566689694456 0.5 L 32.870566689694456 -0.5 L 25 -0.5 Z M 60.655722939694456 0.5 L 68.52628962938891 0.5 L 68.52628962938891 3.5 L 75.52628962938891 0 L 68.52628962938891 -3.5 L 68.52628962938891 -0.5 L 60.655722939694456 -0.5 Z"/><text text-anchor="middle" pointer-events="none" font-size="8px" fill="#000000" x="46.763144814694456" y="3" transform="rotate(180 46.763144814694456 0)" font-family="Helvetica Neue, Helvetica, Arial, sans-serif">USES</text></g><g class="relationship" transform="translate(397.20716351872926 372.78825615268005) rotate(269.8758357900155)"><path class="b-outline" fill="#A5ABB6" stroke="none" d="M 25 0.5 L 70.82381353734365 0.5 L 70.82381353734365 -0.5 L 25 -0.5 Z M 98.60896978734365 0.5 L 144.4327833246873 0.5 L 144.4327833246873 3.5 L 151.4327833246873 0 L 144.4327833246873 -3.5 L 144.4327833246873 -0.5 L 98.60896978734365 -0.5 Z"/><text text-anchor="middle" pointer-events="none" font-size="8px" fill="#000000" x="84.71639166234365" y="3" transform="rotate(180 84.71639166234365 0)" font-family="Helvetica Neue, Helvetica, Arial, sans-serif">USES</text></g><g class="relationship" transform="translate(397.20716351872926 372.78825615268005) rotate(297.2346821876493)"><path class="b-outline" fill="#A5ABB6" stroke="none" d="M 25 0.5 L 88.37004757418983 0.5 L 88.37004757418983 -0.5 L 25 -0.5 Z M 116.15520382418983 0.5 L 179.52525139837965 0.5 L 179.52525139837965 3.5 L 186.52525139837965 0 L 179.52525139837965 -3.5 L 179.52525139837965 -0.5 L 116.15520382418983 -0.5 Z"/><text text-anchor="middle" pointer-events="none" font-size="8px" fill="#000000" x="102.26262569918983" y="3" font-family="Helvetica Neue, Helvetica, Arial, sans-serif">USES</text></g><g class="relationship" transform="translate(397.20716351872926 372.78825615268005) rotate(324.5127229660806)"><path class="b-outline" fill="#A5ABB6" stroke="none" d="M 25 0.5 L 67.84052312319407 0.5 L 67.84052312319407 -0.5 L 25 -0.5 Z M 95.62567937319407 0.5 L 138.46620249638815 0.5 L 138.46620249638815 3.5 L 145.46620249638815 0 L 138.46620249638815 -3.5 L 138.46620249638815 -0.5 L 95.62567937319407 -0.5 Z"/><text text-anchor="middle" pointer-events="none" font-size="8px" fill="#000000" x="81.73310124819407" y="3" font-family="Helvetica Neue, Helvetica, Arial, sans-serif">USES</text></g><g class="relationship" transform="translate(454.5400075539412 583.7630956410854) rotate(504.2689235645653)"><path class="b-outline" fill="#A5ABB6" stroke="none" d="M 25 0.5 L 71.67015600399012 0.5 L 71.67015600399012 -0.5 L 25 -0.5 Z M 114.85765600399012 0.5 L 161.52781200798023 0.5 L 161.52781200798023 3.5 L 168.52781200798023 0 L 161.52781200798023 -3.5 L 161.52781200798023 -0.5 L 114.85765600399012 -0.5 Z"/><text text-anchor="middle" pointer-events="none" font-size="8px" fill="#000000" x="93.26390600399012" y="3" transform="rotate(180 93.26390600399012 0)" font-family="Helvetica Neue, Helvetica, Arial, sans-serif">TARGETS</text></g><g class="relationship" transform="translate(215.59143638634114 533.1297412577928) rotate(423.42820413900995)"><path class="b-outline" fill="#A5ABB6" stroke="none" d="M 25 0.5 L 66.3947853244262 0.5 L 66.3947853244262 -0.5 L 25 -0.5 Z M 109.5822853244262 0.5 L 150.9770706488524 0.5 L 150.9770706488524 3.5 L 157.9770706488524 0 L 150.9770706488524 -3.5 L 150.9770706488524 -0.5 L 109.5822853244262 -0.5 Z"/><text text-anchor="middle" pointer-events="none" font-size="8px" fill="#000000" x="87.9885353244262" y="3" font-family="Helvetica Neue, Helvetica, Arial, sans-serif">TARGETS</text></g><g class="relationship" transform="translate(331.91066005516245 268.4740892314064) rotate(367.3521833111628)"><path class="b-outline" fill="#A5ABB6" stroke="none" d="M 25 0.5 L 27.683577734035367 0.5 L 27.683577734035367 -0.5 L 25 -0.5 Z M 70.87107773403537 0.5 L 73.55465546807073 0.5 L 73.55465546807073 3.5 L 80.55465546807073 0 L 73.55465546807073 -3.5 L 73.55465546807073 -0.5 L 70.87107773403537 -0.5 Z"/><text text-anchor="middle" pointer-events="none" font-size="8px" fill="#000000" x="49.27732773403537" y="3" font-family="Helvetica Neue, Helvetica, Arial, sans-serif">TARGETS</text></g><g class="relationship" transform="translate(302.06270733500116 172.61483123961725) rotate(213.63712860325825)"><path class="b-outline" fill="#A5ABB6" stroke="none" d="M 25 0.5 L 77.27170129768935 0.5 L 77.27170129768935 -0.5 L 25 -0.5 Z M 105.05685754768935 0.5 L 157.3285588453787 0.5 L 157.3285588453787 3.5 L 164.3285588453787 0 L 157.3285588453787 -3.5 L 157.3285588453787 -0.5 L 105.05685754768935 -0.5 Z"/><text text-anchor="middle" pointer-events="none" font-size="8px" fill="#000000" x="91.16427942268935" y="3" transform="rotate(180 91.16427942268935 0)" font-family="Helvetica Neue, Helvetica, Arial, sans-serif">USES</text></g><g class="relationship" transform="translate(297.24681100427694 383.44014949791256) rotate(295.0126327152315)"><path class="b-outline" fill="#A5ABB6" stroke="none" d="M 25 0.5 L 137.22495397173046 0.5 L 137.22495397173046 -0.5 L 25 -0.5 Z M 165.01011022173046 0.5 L 277.2350641934609 0.5 L 277.2350641934609 3.5 L 284.2350641934609 0 L 277.2350641934609 -3.5 L 277.2350641934609 -0.5 L 165.01011022173046 -0.5 Z"/><text text-anchor="middle" pointer-events="none" font-size="8px" fill="#000000" x="151.11753209673046" y="3" font-family="Helvetica Neue, Helvetica, Arial, sans-serif">USES</text></g><g class="relationship" transform="translate(396.82482087156257 196.35588711061277) rotate(288.50272411612406)"><path class="b-outline" fill="#A5ABB6" stroke="none" d="M 25 0.5 L 31.72068846026515 0.5 L 31.72068846026515 -0.5 L 25 -0.5 Z M 59.50584471026515 0.5 L 66.2265331705303 0.5 L 66.2265331705303 3.5 L 73.2265331705303 0 L 66.2265331705303 -3.5 L 66.2265331705303 -0.5 L 59.50584471026515 -0.5 Z"/><text text-anchor="middle" pointer-events="none" font-size="8px" fill="#000000" x="45.61326658526515" y="3" font-family="Helvetica Neue, Helvetica, Arial, sans-serif">USES</text></g><g class="relationship" transform="translate(494.0087807116606 184.7127955312027) rotate(348.67489238096414)"><path class="b-outline" fill="#A5ABB6" stroke="none" d="M 25 0.5 L 31.836848589094572 0.5 L 31.836848589094572 -0.5 L 25 -0.5 Z M 59.62200483909457 0.5 L 66.45885342818914 0.5 L 66.45885342818914 3.5 L 73.45885342818914 0 L 66.45885342818914 -3.5 L 66.45885342818914 -0.5 L 59.62200483909457 -0.5 Z"/><text text-anchor="middle" pointer-events="none" font-size="8px" fill="#000000" x="45.72942671409457" y="3" font-family="Helvetica Neue, Helvetica, Arial, sans-serif">USES</text></g><g class="relationship" transform="translate(536.0083224417523 273.8288479331211) rotate(427.32813008089215)"><path class="b-outline" fill="#A5ABB6" stroke="none" d="M 25 0.5 L 108.98887115039858 0.5 L 108.98887115039858 -0.5 L 25 -0.5 Z M 152.17637115039858 0.5 L 236.16524230079716 0.5 L 236.16524230079716 3.5 L 243.16524230079716 0 L 236.16524230079716 -3.5 L 236.16524230079716 -0.5 L 152.17637115039858 -0.5 Z"/><text text-anchor="middle" pointer-events="none" font-size="8px" fill="#000000" x="130.58262115039858" y="3" font-family="Helvetica Neue, Helvetica, Arial, sans-serif">TARGETS</text></g><g class="relationship" transform="translate(136.89745259370872 259.2756851198478) rotate(364.33259322594887)"><path class="b-outline" fill="#A5ABB6" stroke="none" d="M 25 0.5 L 117.9200879853909 0.5 L 117.9200879853909 -0.5 L 25 -0.5 Z M 175.6388379853909 0.5 L 268.5589259707818 0.5 L 268.5589259707818 3.5 L 275.5589259707818 0 L 268.5589259707818 -3.5 L 268.5589259707818 -0.5 L 175.6388379853909 -0.5 Z"/><text text-anchor="middle" pointer-events="none" font-size="8px" fill="#000000" x="146.7794629853909" y="3" font-family="Helvetica Neue, Helvetica, Arial, sans-serif">RELATED_TO</text></g><g class="relationship" transform="translate(631.2732440616792 255.3535866911723) rotate(532.2113099203214)"><path class="b-outline" fill="#A5ABB6" stroke="none" d="M 25 0.5 L 65.88484959614459 0.5 L 65.88484959614459 -0.5 L 25 -0.5 Z M 123.60359959614459 0.5 L 164.48844919228918 0.5 L 164.48844919228918 3.5 L 171.48844919228918 0 L 164.48844919228918 -3.5 L 164.48844919228918 -0.5 L 123.60359959614459 -0.5 Z"/><text text-anchor="middle" pointer-events="none" font-size="8px" fill="#000000" x="94.74422459614459" y="3" transform="rotate(180 94.74422459614459 0)" font-family="Helvetica Neue, Helvetica, Arial, sans-serif">RELATED_TO</text></g><g class="relationship" transform="translate(-30.584444609885395 218.88955774277244) rotate(373.55732925594407)"><path class="b-outline" fill="#A5ABB6" stroke="none" d="M 25 0.5 L 58.38143412203253 0.5 L 58.38143412203253 -0.5 L 25 -0.5 Z M 106.90096537203253 0.5 L 140.28239949406506 0.5 L 140.28239949406506 3.5 L 147.28239949406506 0 L 140.28239949406506 -3.5 L 140.28239949406506 -0.5 L 106.90096537203253 -0.5 Z"/><text text-anchor="middle" pointer-events="none" font-size="8px" fill="#000000" x="82.64119974703253" y="3" font-family="Helvetica Neue, Helvetica, Arial, sans-serif">MITIGATES</text></g><g class="relationship" transform="translate(241.87580533493082 298.56247408749397) rotate(385.5410112503357)"><path class="b-outline" fill="#A5ABB6" stroke="none" d="M 25 0.5 L 53.718057522136704 0.5 L 53.718057522136704 -0.5 L 25 -0.5 Z M 111.4368075221367 0.5 L 140.1548650442734 0.5 L 140.1548650442734 3.5 L 147.1548650442734 0 L 140.1548650442734 -3.5 L 140.1548650442734 -0.5 L 111.4368075221367 -0.5 Z"/><text text-anchor="middle" pointer-events="none" font-size="8px" fill="#000000" x="82.5774325221367" y="3" font-family="Helvetica Neue, Helvetica, Arial, sans-serif">RELATED_TO</text></g><g class="relationship" transform="translate(162.4536679904908 354.3425111592476) rotate(364.49278220382155)"><path class="b-outline" fill="#A5ABB6" stroke="none" d="M 25 0.5 L 85.37915859360457 0.5 L 85.37915859360457 -0.5 L 25 -0.5 Z M 143.0979085936046 0.5 L 203.47706718720914 0.5 L 203.47706718720914 3.5 L 210.47706718720914 0 L 203.47706718720914 -3.5 L 203.47706718720914 -0.5 L 143.0979085936046 -0.5 Z"/><text text-anchor="middle" pointer-events="none" font-size="8px" fill="#000000" x="114.23853359360457" y="3" font-family="Helvetica Neue, Helvetica, Arial, sans-serif">RELATED_TO</text></g><g class="relationship" transform="translate(380.70983114153063 518.6690684114806) rotate(276.45203909544796)"><path class="b-outline" fill="#A5ABB6" stroke="none" d="M 25 0.5 L 41.04596091104118 0.5 L 41.04596091104118 -0.5 L 25 -0.5 Z M 98.76471091104118 0.5 L 114.81067182208236 0.5 L 114.81067182208236 3.5 L 121.81067182208236 0 L 114.81067182208236 -3.5 L 114.81067182208236 -0.5 L 98.76471091104118 -0.5 Z"/><text text-anchor="middle" pointer-events="none" font-size="8px" fill="#000000" x="69.90533591104118" y="3" font-family="Helvetica Neue, Helvetica, Arial, sans-serif">RELATED_TO</text></g><g class="relationship" transform="translate(215.67686971435626 436.3299009942921) rotate(340.70825489530773)"><path class="b-outline" fill="#A5ABB6" stroke="none" d="M 25 0.5 L 63.805572093366024 0.5 L 63.805572093366024 -0.5 L 25 -0.5 Z M 121.52432209336602 0.5 L 160.32989418673205 0.5 L 160.32989418673205 3.5 L 167.32989418673205 0 L 160.32989418673205 -3.5 L 160.32989418673205 -0.5 L 121.52432209336602 -0.5 Z"/><text text-anchor="middle" pointer-events="none" font-size="8px" fill="#000000" x="92.66494709336602" y="3" font-family="Helvetica Neue, Helvetica, Arial, sans-serif">RELATED_TO</text></g><g class="relationship" transform="translate(436.59747728812846 281.9817014783835) rotate(384.121528172152)"><path class="b-outline" fill="#A5ABB6" stroke="none" d="M 25 0.5 L 52.73966069925655 0.5 L 52.73966069925655 -0.5 L 25 -0.5 Z M 110.45841069925655 0.5 L 138.1980713985131 0.5 L 138.1980713985131 3.5 L 145.1980713985131 0 L 138.1980713985131 -3.5 L 138.1980713985131 -0.5 L 110.45841069925655 -0.5 Z"/><text text-anchor="middle" pointer-events="none" font-size="8px" fill="#000000" x="81.59903569925655" y="3" font-family="Helvetica Neue, Helvetica, Arial, sans-serif">RELATED_TO</text></g><g class="relationship" transform="translate(436.59747728812846 281.9817014783835) rotate(294.9897534487649)"><path class="b-outline" fill="#A5ABB6" stroke="none" d="M 25 0.5 L 72.37243677198397 0.5 L 72.37243677198397 -0.5 L 25 -0.5 Z M 130.09118677198398 0.5 L 177.46362354396794 0.5 L 177.46362354396794 3.5 L 184.46362354396794 0 L 177.46362354396794 -3.5 L 177.46362354396794 -0.5 L 130.09118677198398 -0.5 Z"/><text text-anchor="middle" pointer-events="none" font-size="8px" fill="#000000" x="101.23181177198397" y="3" font-family="Helvetica Neue, Helvetica, Arial, sans-serif">RELATED_TO</text></g><g class="relationship" transform="translate(397.20716351872926 372.78825615268005) rotate(483.89761049586)"><path class="b-outline" fill="#A5ABB6" stroke="none" d="M 25 0.5 L 118.65122855968721 0.5 L 118.65122855968721 -0.5 L 25 -0.5 Z M 185.5457598096872 0.5 L 279.1969883693744 0.5 L 279.1969883693744 3.5 L 286.1969883693744 0 L 279.1969883693744 -3.5 L 279.1969883693744 -0.5 L 185.5457598096872 -0.5 Z"/><text text-anchor="middle" pointer-events="none" font-size="8px" fill="#000000" x="152.0984941846872" y="3" transform="rotate(180 152.0984941846872 0)" font-family="Helvetica Neue, Helvetica, Arial, sans-serif">COMPROMISES</text></g></g><g class="layer nodes"><g class="node" aria-label="graph-node60" transform="translate(430.2129324349891,835.1481912318272)"><circle class="b-outline" cx="0" cy="0" r="25" fill="#569480" stroke="#447666" stroke-width="2px"/><text class="caption" text-anchor="middle" pointer-events="none" x="0" y="5" font-size="10px" fill="#FFFFFF" font-family="Helvetica Neue, Helvetica, Arial, sans-serif"> Ukraine</text></g><g class="node" aria-label="graph-node61" transform="translate(465.6334484931769,681.4404977742428)"><circle class="b-outline" cx="0" cy="0" r="25" fill="#C990C0" stroke="#b261a5" stroke-width="2px"/><text class="caption" text-anchor="middle" pointer-events="none" x="0" y="5" font-size="10px" fill="#FFFFFF" font-family="Helvetica Neue, Helvetica, Arial, sans-serif"> Ukrainia…</text></g><g class="node" aria-label="graph-node62" transform="translate(303.7467560603855,577.2375173300949)"><circle class="b-outline" cx="0" cy="0" r="25" fill="#C990C0" stroke="#b261a5" stroke-width="2px"/><text class="caption" text-anchor="middle" pointer-events="none" x="0" y="5" font-size="10px" fill="#FFFFFF" font-family="Helvetica Neue, Helvetica, Arial, sans-serif"> Operatio…</text></g><g class="node" aria-label="graph-node63" transform="translate(375.99178815547117,638.8335717651516)"><circle class="b-outline" cx="0" cy="0" r="25" fill="#C990C0" stroke="#b261a5" stroke-width="2px"/><text class="caption" text-anchor="middle" pointer-events="none" x="0" y="5" font-size="10px" fill="#FFFFFF" font-family="Helvetica Neue, Helvetica, Arial, sans-serif"> Industria…</text></g><g class="node" aria-label="graph-node64" transform="translate(297.4405349936965,696.7797746839994)"><circle class="b-outline" cx="0" cy="0" r="25" fill="#C990C0" stroke="#b261a5" stroke-width="2px"/><text class="caption" text-anchor="middle" pointer-events="none" x="0" y="5" font-size="10px" fill="#FFFFFF" font-family="Helvetica Neue, Helvetica, Arial, sans-serif"> Scada</text></g><g class="node" aria-label="graph-node65" transform="translate(436.59747728812846,281.9817014783835)"><circle class="b-outline" cx="0" cy="0" r="25" fill="#C990C0" stroke="#b261a5" stroke-width="2px"/><text class="caption" text-anchor="middle" pointer-events="none" x="0" y="5" font-size="10px" fill="#FFFFFF" font-family="Helvetica Neue, Helvetica, Arial, sans-serif"> Microsc…</text></g><g class="node" aria-label="graph-node66" transform="translate(639.3734367978594,521.2722764423344)"><circle class="b-outline" cx="0" cy="0" r="25" fill="#C990C0" stroke="#b261a5" stroke-width="2px"/><text class="caption" text-anchor="middle" pointer-events="none" x="0" y="5" font-size="10px" fill="#FFFFFF" font-family="Helvetica Neue, Helvetica, Arial, sans-serif"> Substati…</text></g><g class="node" aria-label="graph-node67" transform="translate(548.1040803266086,551.4380709122767)"><circle class="b-outline" cx="0" cy="0" r="25" fill="#C990C0" stroke="#b261a5" stroke-width="2px"/><text class="caption" text-anchor="middle" pointer-events="none" x="0" y="5" font-size="10px" fill="#FFFFFF" font-family="Helvetica Neue, Helvetica, Arial, sans-serif"> Itenviron…</text></g><g class="node" aria-label="graph-node68" transform="translate(427.99698601749014,103.20682410503925)"><circle class="b-outline" cx="0" cy="0" r="25" fill="#F16667" stroke="#eb2728" stroke-width="2px"/><text class="caption" text-anchor="middle" pointer-events="none" x="0" y="5" font-size="10px" fill="#FFFFFF" font-family="Helvetica Neue, Helvetica, Arial, sans-serif"> Caddywi…</text></g><g class="node" aria-label="graph-node69" transform="translate(-164.13390498189887,276.8613919053193)"><circle class="b-outline" cx="0" cy="0" r="25" fill="#F16667" stroke="#eb2728" stroke-width="2px"/><text class="caption" text-anchor="middle" pointer-events="none" x="0" y="5" font-size="10px" fill="#FFFFFF" font-family="Helvetica Neue, Helvetica, Arial, sans-serif"> Neorege…</text></g><g class="node" aria-label="graph-node70" transform="translate(110.17716217785397,476.61859438298364)"><circle class="b-outline" cx="0" cy="0" r="25" fill="#FFC454" stroke="#d7a013" stroke-width="2px"/><text class="caption" text-anchor="middle" pointer-events="none" x="0" y="5" font-size="10px" fill="#2A2C34" font-family="Helvetica Neue, Helvetica, Arial, sans-serif"> Gogetter</text></g><g class="node" aria-label="graph-node71" transform="translate(210.02963774714144,-106.05654047209904)"><circle class="b-outline" cx="0" cy="0" r="25" fill="#FFC454" stroke="#d7a013" stroke-width="2px"/><text class="caption" text-anchor="middle" pointer-events="none" x="0" y="5" font-size="10px" fill="#2A2C34" font-family="Helvetica Neue, Helvetica, Arial, sans-serif"> Tanktrap</text></g><g class="node" aria-label="graph-node72" transform="translate(263.18972822643406,7.823993211583348)"><circle class="b-outline" cx="0" cy="0" r="25" fill="#C990C0" stroke="#b261a5" stroke-width="2px"/><text class="caption" text-anchor="middle" pointer-events="none" x="0" y="5" font-size="10px" fill="#FFFFFF" font-family="Helvetica Neue, Helvetica, Arial, sans-serif"> Aiso</text></g><g class="node" aria-label="graph-node73" transform="translate(144.43485681089084,67.73983930342327)"><circle class="b-outline" cx="0" cy="0" r="25" fill="#C990C0" stroke="#b261a5" stroke-width="2px"/><text class="caption" text-anchor="middle" pointer-events="none" x="0" y="5" font-size="10px" fill="#FFFFFF" font-family="Helvetica Neue, Helvetica, Arial, sans-serif"> Lunvbs</text></g><g class="node" aria-label="graph-node74" transform="translate(406.520983706992,7.28817291422412)"><circle class="b-outline" cx="0" cy="0" r="25" fill="#C990C0" stroke="#b261a5" stroke-width="2px"/><text class="caption" text-anchor="middle" pointer-events="none" x="0" y="5" font-size="10px" fill="#FFFFFF" font-family="Helvetica Neue, Helvetica, Arial, sans-serif"> Nbat</text></g><g class="node" aria-label="graph-node75" transform="translate(211.92414615872516,198.76391008778404)"><circle class="b-outline" cx="0" cy="0" r="25" fill="#C990C0" stroke="#b261a5" stroke-width="2px"/><text class="caption" text-anchor="middle" pointer-events="none" x="0" y="5" font-size="10px" fill="#FFFFFF" font-family="Helvetica Neue, Helvetica, Arial, sans-serif"> S1Txt</text></g><g class="node" aria-label="graph-node76" transform="translate(590.5505121405836,165.37785536839527)"><circle class="b-outline" cx="0" cy="0" r="25" fill="#FFC454" stroke="#d7a013" stroke-width="2px"/><text class="caption" text-anchor="middle" pointer-events="none" x="0" y="5" font-size="10px" fill="#2A2C34" font-family="Helvetica Neue, Helvetica, Arial, sans-serif"> Scilcexe</text></g><g class="node" aria-label="graph-node77" transform="translate(689.324240444311,335.47190554099353)"><circle class="b-outline" cx="0" cy="0" r="25" fill="#FFC454" stroke="#d7a013" stroke-width="2px"/><text class="caption" text-anchor="middle" pointer-events="none" x="0" y="5" font-size="10px" fill="#2A2C34" font-family="Helvetica Neue, Helvetica, Arial, sans-serif"> Scil</text></g><g class="node" aria-label="graph-node78" transform="translate(560.9007041038948,443.79890949478664)"><circle class="b-outline" cx="0" cy="0" r="25" fill="#57C7E3" stroke="#23b3d7" stroke-width="2px"/><text class="caption" text-anchor="middle" pointer-events="none" x="0" y="5" font-size="10px" fill="#2A2C34" font-family="Helvetica Neue, Helvetica, Arial, sans-serif"> Iec6087…</text></g><g class="node" aria-label="graph-node79" transform="translate(654.6980718852176,426.3803785900961)"><circle class="b-outline" cx="0" cy="0" r="25" fill="#57C7E3" stroke="#23b3d7" stroke-width="2px"/><text class="caption" text-anchor="middle" pointer-events="none" x="0" y="5" font-size="10px" fill="#2A2C34" font-family="Helvetica Neue, Helvetica, Arial, sans-serif"> Iec6087…</text></g><g class="node" aria-label="graph-node80" transform="translate(236.66393271236063,103.0073227230884)"><circle class="b-outline" cx="0" cy="0" r="25" fill="#FFC454" stroke="#d7a013" stroke-width="2px"/><text class="caption" text-anchor="middle" pointer-events="none" x="0" y="5" font-size="10px" fill="#2A2C34" font-family="Helvetica Neue, Helvetica, Arial, sans-serif"> Grouppo…</text></g><g class="node" aria-label="graph-node81" transform="translate(332.83964707039604,78.88453883701018)"><circle class="b-outline" cx="0" cy="0" r="25" fill="#57C7E3" stroke="#23b3d7" stroke-width="2px"/><text class="caption" text-anchor="middle" pointer-events="none" x="0" y="5" font-size="10px" fill="#2A2C34" font-family="Helvetica Neue, Helvetica, Arial, sans-serif"> Schedul…</text></g><g class="node" aria-label="graph-node82" transform="translate(136.89745259370872,259.2756851198478)"><circle class="b-outline" cx="0" cy="0" r="25" fill="#604A0E" stroke="#423204" stroke-width="2px"/><text class="caption" text-anchor="middle" pointer-events="none" x="0" y="5" font-size="10px" fill="#FFFFFF" font-family="Helvetica Neue, Helvetica, Arial, sans-serif"> Eolmicro…</text></g><g class="node" aria-label="graph-node83" transform="translate(631.2732440616792,255.3535866911723)"><circle class="b-outline" cx="0" cy="0" r="25" fill="#604A0E" stroke="#423204" stroke-width="2px"/><text class="caption" text-anchor="middle" pointer-events="none" x="0" y="5" font-size="10px" fill="#FFFFFF" font-family="Helvetica Neue, Helvetica, Arial, sans-serif"> Scilapiv…</text></g><g class="node" aria-label="graph-node86" transform="translate(297.5489560142726,481.32439436384556)"><circle class="b-outline" cx="0" cy="0" r="25" fill="#57C7E3" stroke="#23b3d7" stroke-width="2px"/><text class="caption" text-anchor="middle" pointer-events="none" x="0" y="5" font-size="10px" fill="#2A2C34" font-family="Helvetica Neue, Helvetica, Arial, sans-serif"> Livingofft…</text></g><g class="node" aria-label="graph-node87" transform="translate(475.7374471686585,484.48614550647227)"><circle class="b-outline" cx="0" cy="0" r="25" fill="#57C7E3" stroke="#23b3d7" stroke-width="2px"/><text class="caption" text-anchor="middle" pointer-events="none" x="0" y="5" font-size="10px" fill="#2A2C34" font-family="Helvetica Neue, Helvetica, Arial, sans-serif"> Lotlbin</text></g><g class="node" aria-label="graph-node88" transform="translate(306.8998673511259,-260.70643518807685)"><circle class="b-outline" cx="0" cy="0" r="25" fill="#F16667" stroke="#eb2728" stroke-width="2px"/><text class="caption" text-anchor="middle" pointer-events="none" x="0" y="5" font-size="10px" fill="#FFFFFF" font-family="Helvetica Neue, Helvetica, Arial, sans-serif"> Nearmiss</text></g><g class="node" aria-label="graph-node89" transform="translate(137.49936559352332,-295.051875611095)"><circle class="b-outline" cx="0" cy="0" r="25" fill="#FFC454" stroke="#d7a013" stroke-width="2px"/><text class="caption" text-anchor="middle" pointer-events="none" x="0" y="5" font-size="10px" fill="#2A2C34" font-family="Helvetica Neue, Helvetica, Arial, sans-serif"> Sdelete</text></g><g class="node" aria-label="graph-node90" transform="translate(45.697930503001096,-259.21874647363853)"><circle class="b-outline" cx="0" cy="0" r="25" fill="#F16667" stroke="#eb2728" stroke-width="2px"/><text class="caption" text-anchor="middle" pointer-events="none" x="0" y="5" font-size="10px" fill="#FFFFFF" font-family="Helvetica Neue, Helvetica, Arial, sans-serif"> Partyticket</text></g><g class="node" aria-label="graph-node91" transform="translate(-228.5657297010975,423.8582547035693)"><circle class="b-outline" cx="0" cy="0" r="25" fill="#D9C8AE" stroke="#c0a378" stroke-width="2px"/><text class="caption" text-anchor="middle" pointer-events="none" x="0" y="5" font-size="10px" fill="#2A2C34" font-family="Helvetica Neue, Helvetica, Arial, sans-serif"> Indicator…</text></g><g class="node" aria-label="graph-node92" transform="translate(-186.0967075544858,115.00728763463233)"><circle class="b-outline" cx="0" cy="0" r="25" fill="#D9C8AE" stroke="#c0a378" stroke-width="2px"/><text class="caption" text-anchor="middle" pointer-events="none" x="0" y="5" font-size="10px" fill="#2A2C34" font-family="Helvetica Neue, Helvetica, Arial, sans-serif"> Indicator…</text></g><g class="node" aria-label="graph-node93" transform="translate(-281.16409248154446,138.77756960846892)"><circle class="b-outline" cx="0" cy="0" r="25" fill="#D9C8AE" stroke="#c0a378" stroke-width="2px"/><text class="caption" text-anchor="middle" pointer-events="none" x="0" y="5" font-size="10px" fill="#2A2C34" font-family="Helvetica Neue, Helvetica, Arial, sans-serif"> Indicator…</text></g><g class="node" aria-label="graph-node94" transform="translate(-366.00419807347697,188.827816176224)"><circle class="b-outline" cx="0" cy="0" r="25" fill="#D9C8AE" stroke="#c0a378" stroke-width="2px"/><text class="caption" text-anchor="middle" pointer-events="none" x="0" y="5" font-size="10px" fill="#2A2C34" font-family="Helvetica Neue, Helvetica, Arial, sans-serif"> Indicator…</text></g><g class="node" aria-label="graph-node95" transform="translate(-63.64331082418776,495.847123886481)"><circle class="b-outline" cx="0" cy="0" r="25" fill="#D9C8AE" stroke="#c0a378" stroke-width="2px"/><text class="caption" text-anchor="middle" pointer-events="none" x="0" y="5" font-size="10px" fill="#2A2C34" font-family="Helvetica Neue, Helvetica, Arial, sans-serif"> Indicator…</text></g><g class="node" aria-label="graph-node96" transform="translate(-282.88428500151264,237.8502968299612)"><circle class="b-outline" cx="0" cy="0" r="25" fill="#D9C8AE" stroke="#c0a378" stroke-width="2px"/><text class="caption" text-anchor="middle" pointer-events="none" x="0" y="5" font-size="10px" fill="#2A2C34" font-family="Helvetica Neue, Helvetica, Arial, sans-serif"> Indicator…</text></g><g class="node" aria-label="graph-node97" transform="translate(-366.549756463587,287.24992529214643)"><circle class="b-outline" cx="0" cy="0" r="25" fill="#D9C8AE" stroke="#c0a378" stroke-width="2px"/><text class="caption" text-anchor="middle" pointer-events="none" x="0" y="5" font-size="10px" fill="#2A2C34" font-family="Helvetica Neue, Helvetica, Arial, sans-serif"> Indicator…</text></g><g class="node" aria-label="graph-node98" transform="translate(-308.4334121453381,366.81862744558475)"><circle class="b-outline" cx="0" cy="0" r="25" fill="#D9C8AE" stroke="#c0a378" stroke-width="2px"/><text class="caption" text-anchor="middle" pointer-events="none" x="0" y="5" font-size="10px" fill="#2A2C34" font-family="Helvetica Neue, Helvetica, Arial, sans-serif"> Indicator…</text></g><g class="node" aria-label="graph-node99" transform="translate(-27.297534864138186,588.1698114395926)"><circle class="b-outline" cx="0" cy="0" r="25" fill="#D9C8AE" stroke="#c0a378" stroke-width="2px"/><text class="caption" text-anchor="middle" pointer-events="none" x="0" y="5" font-size="10px" fill="#2A2C34" font-family="Helvetica Neue, Helvetica, Arial, sans-serif"> Indicator…</text></g><g class="node" aria-label="graph-node100" transform="translate(33.73077382015941,-61.99305870590276)"><circle class="b-outline" cx="0" cy="0" r="25" fill="#D9C8AE" stroke="#c0a378" stroke-width="2px"/><text class="caption" text-anchor="middle" pointer-events="none" x="0" y="5" font-size="10px" fill="#2A2C34" font-family="Helvetica Neue, Helvetica, Arial, sans-serif"> Indicator…</text></g><g class="node" aria-label="graph-node101" transform="translate(-26.626376588083605,16.369760393411713)"><circle class="b-outline" cx="0" cy="0" r="25" fill="#D9C8AE" stroke="#c0a378" stroke-width="2px"/><text class="caption" text-anchor="middle" pointer-events="none" x="0" y="5" font-size="10px" fill="#2A2C34" font-family="Helvetica Neue, Helvetica, Arial, sans-serif"> Indicator…</text></g><g class="node" aria-label="graph-node102" transform="translate(471.88828121674055,-156.84893101473503)"><circle class="b-outline" cx="0" cy="0" r="25" fill="#D9C8AE" stroke="#c0a378" stroke-width="2px"/><text class="caption" text-anchor="middle" pointer-events="none" x="0" y="5" font-size="10px" fill="#2A2C34" font-family="Helvetica Neue, Helvetica, Arial, sans-serif"> Indicator…</text></g><g class="node" aria-label="graph-node103" transform="translate(292.7889688370775,-160.71761106682592)"><circle class="b-outline" cx="0" cy="0" r="25" fill="#D9C8AE" stroke="#c0a378" stroke-width="2px"/><text class="caption" text-anchor="middle" pointer-events="none" x="0" y="5" font-size="10px" fill="#2A2C34" font-family="Helvetica Neue, Helvetica, Arial, sans-serif"> Indicator…</text></g><g class="node" aria-label="graph-node104" transform="translate(512.4307819215801,-50.81507598810318)"><circle class="b-outline" cx="0" cy="0" r="25" fill="#D9C8AE" stroke="#c0a378" stroke-width="2px"/><text class="caption" text-anchor="middle" pointer-events="none" x="0" y="5" font-size="10px" fill="#2A2C34" font-family="Helvetica Neue, Helvetica, Arial, sans-serif"> Indicator…</text></g><g class="node" aria-label="graph-node105" transform="translate(493.20871444700987,358.7291918936441)"><circle class="b-outline" cx="0" cy="0" r="25" fill="#D9C8AE" stroke="#c0a378" stroke-width="2px"/><text class="caption" text-anchor="middle" pointer-events="none" x="0" y="5" font-size="10px" fill="#2A2C34" font-family="Helvetica Neue, Helvetica, Arial, sans-serif"> Indicator…</text></g><g class="node" aria-label="graph-node106" transform="translate(231.61072851809368,-325.3253235757003)"><circle class="b-outline" cx="0" cy="0" r="25" fill="#D9C8AE" stroke="#c0a378" stroke-width="2px"/><text class="caption" text-anchor="middle" pointer-events="none" x="0" y="5" font-size="10px" fill="#2A2C34" font-family="Helvetica Neue, Helvetica, Arial, sans-serif"> Indicator…</text></g><g class="node" aria-label="graph-node107" transform="translate(213.24240872981883,-231.96468651907216)"><circle class="b-outline" cx="0" cy="0" r="25" fill="#D9C8AE" stroke="#c0a378" stroke-width="2px"/><text class="caption" text-anchor="middle" pointer-events="none" x="0" y="5" font-size="10px" fill="#2A2C34" font-family="Helvetica Neue, Helvetica, Arial, sans-serif"> Indicator…</text></g><g class="node" aria-label="graph-node108" transform="translate(119.55777735215518,-198.30130782682585)"><circle class="b-outline" cx="0" cy="0" r="25" fill="#D9C8AE" stroke="#c0a378" stroke-width="2px"/><text class="caption" text-anchor="middle" pointer-events="none" x="0" y="5" font-size="10px" fill="#2A2C34" font-family="Helvetica Neue, Helvetica, Arial, sans-serif"> Indicator…</text></g><g class="node" aria-label="graph-node109" transform="translate(28.72419038963579,-161.54952793582535)"><circle class="b-outline" cx="0" cy="0" r="25" fill="#D9C8AE" stroke="#c0a378" stroke-width="2px"/><text class="caption" text-anchor="middle" pointer-events="none" x="0" y="5" font-size="10px" fill="#2A2C34" font-family="Helvetica Neue, Helvetica, Arial, sans-serif"> Indicator…</text></g><g class="node" aria-label="graph-node110" transform="translate(58.31117263363259,124.8406451775284)"><circle class="b-outline" cx="0" cy="0" r="25" fill="#D9C8AE" stroke="#c0a378" stroke-width="2px"/><text class="caption" text-anchor="middle" pointer-events="none" x="0" y="5" font-size="10px" fill="#2A2C34" font-family="Helvetica Neue, Helvetica, Arial, sans-serif"> Indicator…</text></g><g class="node" aria-label="graph-node111" transform="translate(454.5400075539412,583.7630956410854)"><circle class="b-outline" cx="0" cy="0" r="25" fill="#57C7E3" stroke="#23b3d7" stroke-width="2px"/><text class="caption" text-anchor="middle" pointer-events="none" x="0" y="5" font-size="10px" fill="#2A2C34" font-family="Helvetica Neue, Helvetica, Arial, sans-serif"> Attackpa…</text></g><g class="node" aria-label="graph-node112" transform="translate(215.59143638634114,533.1297412577928)"><circle class="b-outline" cx="0" cy="0" r="25" fill="#57C7E3" stroke="#23b3d7" stroke-width="2px"/><text class="caption" text-anchor="middle" pointer-events="none" x="0" y="5" font-size="10px" fill="#2A2C34" font-family="Helvetica Neue, Helvetica, Arial, sans-serif"> Attackpa…</text></g><g class="node" aria-label="graph-node113" transform="translate(331.91066005516245,268.4740892314064)"><circle class="b-outline" cx="0" cy="0" r="25" fill="#57C7E3" stroke="#23b3d7" stroke-width="2px"/><text class="caption" text-anchor="middle" pointer-events="none" x="0" y="5" font-size="10px" fill="#2A2C34" font-family="Helvetica Neue, Helvetica, Arial, sans-serif"> Attackpa…</text></g><g class="node" aria-label="graph-node114" transform="translate(302.06270733500116,172.61483123961725)"><circle class="b-outline" cx="0" cy="0" r="25" fill="#57C7E3" stroke="#23b3d7" stroke-width="2px"/><text class="caption" text-anchor="middle" pointer-events="none" x="0" y="5" font-size="10px" fill="#2A2C34" font-family="Helvetica Neue, Helvetica, Arial, sans-serif"> Attackpa…</text></g><g class="node" aria-label="graph-node115" transform="translate(297.24681100427694,383.44014949791256)"><circle class="b-outline" cx="0" cy="0" r="25" fill="#57C7E3" stroke="#23b3d7" stroke-width="2px"/><text class="caption" text-anchor="middle" pointer-events="none" x="0" y="5" font-size="10px" fill="#2A2C34" font-family="Helvetica Neue, Helvetica, Arial, sans-serif"> Attackpa…</text></g><g class="node" aria-label="graph-node116" transform="translate(396.82482087156257,196.35588711061277)"><circle class="b-outline" cx="0" cy="0" r="25" fill="#57C7E3" stroke="#23b3d7" stroke-width="2px"/><text class="caption" text-anchor="middle" pointer-events="none" x="0" y="5" font-size="10px" fill="#2A2C34" font-family="Helvetica Neue, Helvetica, Arial, sans-serif"> Attackpa…</text></g><g class="node" aria-label="graph-node117" transform="translate(494.0087807116606,184.7127955312027)"><circle class="b-outline" cx="0" cy="0" r="25" fill="#57C7E3" stroke="#23b3d7" stroke-width="2px"/><text class="caption" text-anchor="middle" pointer-events="none" x="0" y="5" font-size="10px" fill="#2A2C34" font-family="Helvetica Neue, Helvetica, Arial, sans-serif"> Attackpa…</text></g><g class="node" aria-label="graph-node118" transform="translate(536.0083224417523,273.8288479331211)"><circle class="b-outline" cx="0" cy="0" r="25" fill="#57C7E3" stroke="#23b3d7" stroke-width="2px"/><text class="caption" text-anchor="middle" pointer-events="none" x="0" y="5" font-size="10px" fill="#2A2C34" font-family="Helvetica Neue, Helvetica, Arial, sans-serif"> Attackpa…</text></g><g class="node" aria-label="graph-node119" transform="translate(-30.584444609885395,218.88955774277244)"><circle class="b-outline" cx="0" cy="0" r="25" fill="#D9C8AE" stroke="#c0a378" stroke-width="2px"/><text class="caption" text-anchor="middle" pointer-events="none" x="0" y="5" font-size="10px" fill="#2A2C34" font-family="Helvetica Neue, Helvetica, Arial, sans-serif"> Update…</text></g><g class="node" aria-label="graph-node125" transform="translate(241.87580533493082,298.56247408749397)"><circle class="b-outline" cx="0" cy="0" r="25" fill="#C990C0" stroke="#b261a5" stroke-width="2px"/><text class="caption" text-anchor="middle" pointer-events="none" x="0" y="5" font-size="10px" fill="#FFFFFF" font-family="Helvetica Neue, Helvetica, Arial, sans-serif"> Mandiant</text></g><g class="node" aria-label="graph-node126" transform="translate(162.4536679904908,354.3425111592476)"><circle class="b-outline" cx="0" cy="0" r="25" fill="#C990C0" stroke="#b261a5" stroke-width="2px"/><text class="caption" text-anchor="middle" pointer-events="none" x="0" y="5" font-size="10px" fill="#FFFFFF" font-family="Helvetica Neue, Helvetica, Arial, sans-serif"> Sbu</text></g><g class="node" aria-label="graph-node127" transform="translate(380.70983114153063,518.6690684114806)"><circle class="b-outline" cx="0" cy="0" r="25" fill="#C990C0" stroke="#b261a5" stroke-width="2px"/><text class="caption" text-anchor="middle" pointer-events="none" x="0" y="5" font-size="10px" fill="#FFFFFF" font-family="Helvetica Neue, Helvetica, Arial, sans-serif"> Ukukrain…</text></g><g class="node" aria-label="graph-node128" transform="translate(215.67686971435626,436.3299009942921)"><circle class="b-outline" cx="0" cy="0" r="25" fill="#C990C0" stroke="#b261a5" stroke-width="2px"/><text class="caption" text-anchor="middle" pointer-events="none" x="0" y="5" font-size="10px" fill="#FFFFFF" font-family="Helvetica Neue, Helvetica, Arial, sans-serif"> Ukfcdo</text></g><g class="node" aria-label="graph-node129" transform="translate(591.933970144088,351.5371289803678)"><circle class="b-outline" cx="0" cy="0" r="25" fill="#C990C0" stroke="#b261a5" stroke-width="2px"/><text class="caption" text-anchor="middle" pointer-events="none" x="0" y="5" font-size="10px" fill="#FFFFFF" font-family="Helvetica Neue, Helvetica, Arial, sans-serif"> Hitachie…</text></g><g class="node" aria-label="graph-node130" transform="translate(525.0866783818126,92.12736026393917)"><circle class="b-outline" cx="0" cy="0" r="25" fill="#C990C0" stroke="#b261a5" stroke-width="2px"/><text class="caption" text-anchor="middle" pointer-events="none" x="0" y="5" font-size="10px" fill="#FFFFFF" font-family="Helvetica Neue, Helvetica, Arial, sans-serif"> Abb</text></g><g class="node" aria-label="graph-node133" transform="translate(223.64933769363043,631.092817988187)"><circle class="b-outline" cx="0" cy="0" r="25" fill="#C990C0" stroke="#b261a5" stroke-width="2px"/><text class="caption" text-anchor="middle" pointer-events="none" x="0" y="5" font-size="10px" fill="#FFFFFF" font-family="Helvetica Neue, Helvetica, Arial, sans-serif"> Hypervis…</text></g><g class="node" aria-label="graph-node132" transform="translate(397.20716351872926,372.78825615268005)"><circle class="b-outline" cx="0" cy="0" r="25" fill="#F16667" stroke="#eb2728" stroke-width="2px"/><text class="caption" text-anchor="middle" pointer-events="none" x="0" y="5" font-size="10px" fill="#FFFFFF" font-family="Helvetica Neue, Helvetica, Arial, sans-serif"> Sandwor…</text></g></g></svg>